# AST/ASF file generated using VICON BodyLanguage
# -----------------------------------------------
:version 1.10
:name VICON
:units
  mass 1.0
  length 0.45
  angle deg
:documentation
   .ast/.asf automatically generated from VICON data using
   VICON BodyBuilder and BodyLanguage model FoxedUp or BRILLIANT.MOD
:root
   order TX TY TZ RX RY RZ
   axis XYZ
   position 0 0 0  
   orientation 0 0 0 
:bonedata
  begin
     id 1 
     name lhipjoint
     direction 0.682418 -0.694059 0.22932 
     length 2.25561 
     axis 0 0 0  XYZ
  end
  begin
     id 2 
     name lfemur
     direction 0.34202 -0.939693 0  
     length 6.96448  
     axis 0 0 20  XYZ
    dof rx ry rz
    limits (-160.0 20.0)
           (-70.0 70.0)
           (-60.0 70.0)
  end
  begin
     id 3 
     name ltibia
     direction 0.34202 -0.939693 0   
     length 6.88553   
     axis 0 0 20   XYZ
    dof rx
    limits (-10.0 170.0)
  end
  begin
     id 4 
     name lfoot
     direction 0.0723587 -0.198804 0.977364   
     length 1.88518   
     axis -90 7.62852e-016 20   XYZ
    dof rx rz
    limits (-45.0 90.0)
           (-70.0 20.0)
  end
  begin
     id 5 
     name ltoes
     direction 1.53558e-011 -4.21962e-011 1   
     length 0.952124   
     axis -90 7.62852e-016 20   XYZ
    dof rx
    limits (-90.0 20.0)
  end
  begin
     id 6 
     name rhipjoint
     direction -0.657603 -0.71533 0.236348   
     length 2.18854  
     axis 0 0 0  XYZ 
  end
  begin
     id 7 
     name rfemur
     direction -0.34202 -0.939693 0   
     length 6.86686   
     axis 0 0 -20   XYZ
    dof rx ry rz
    limits (-160.0 20.0)
           (-70.0 70.0)
           (-70.0 60.0)
  end
  begin
     id 8 
     name rtibia
     direction -0.34202 -0.939693 0   
     length 6.59503   
     axis 0 0 -20   XYZ
    dof rx
    limits (-10.0 170.0)
 end
 begin
     id 9 
     name rfoot
     direction -0.101977 -0.280179 0.954516   
     length 1.93723  
     axis -90 -7.62852e-016 -20   XYZ
    dof rx rz
    limits (-45.0 90.0)
           (-20.0 70.0)
  end
  begin
     id 10 
     name rtoes
     direction -1.53564e-011 -4.21897e-011 1   
     length 0.970315   
     axis -90 -7.62852e-016 -20   XYZ
    dof rx
    limits (-90.0 20.0)
  end
  begin
     id 11 
     name lowerback
     direction -0.0339559 0.999421 -0.00235966   
     length 1.88543   
     axis 0 0 0   XYZ
    dof rx ry rz
    limits (-20.0 45.0)
           (-30.0 30.0)
           (-30.0 30.0)
  end
  begin
     id 12 
     name upperback
     direction 0.00401003 0.999739 0.0224689   
     length 1.8856   
     axis 0 0 0   XYZ
    dof rx ry rz
    limits (-20.0 45.0)
           (-30.0 30.0)
           (-30.0 30.0)
  end
  begin
     id 13 
     name thorax
     direction 0.0198619 0.999546 0.0226536   
     length 1.88352   
     axis 0 0 0   XYZ
    dof rx ry rz
    limits (-20.0 45.0)
           (-30.0 30.0)
           (-30.0 30.0)
  end
  begin
     id 14 
     name lowerneck
     direction -0.0461848 0.998632 0.0245198   
     length 1.34895   
     axis 0 0 0   XYZ
    dof rx ry rz
    limits (-20.0 45.0)
           (-30.0 30.0)
           (-30.0 30.0)
  end
  begin
     id 15 
     name upperneck
     direction -0.0180627 0.994724 -0.100984   
     length 1.35214   
     axis 0 0 0   XYZ
    dof rx ry rz
    limits (-20.0 45.0)
           (-30.0 30.0)
           (-30.0 30.0)
  end
  begin
     id 16
     name head
     direction -0.00374772 0.999293 -0.037403  
     length 1.3568  
     axis 0 0 0   XYZ
    dof rx ry rz
    limits (-20.0 45.0)
           (-30.0 30.0)
           (-30.0 30.0)
  end
  begin
     id 17 
     name lclavicle
     direction 0.971773 0.191119 0.138311  
     length 2.84954  
     axis 0 0 0   XYZ
    dof ry rz
    limits (-20.0 10.0)
           (0.0 20.0)
  end
  begin
     id 18 
     name lhumerus
     direction 1 -4.4897e-011 -2.43761e-027   
     length 4.40919   
     axis 180 -30 -90   XYZ
    dof rx ry rz
    limits (-60.0 90.0)
           (-90.0 90.0)
           (-90.0 90.0)
  end
  begin
     id 19
     name lradius
     direction 1 -4.4896e-011 -9.1621e-027   
     length 3.03857   
     axis 180 -30 -90   XYZ
    dof rx
    limits (-10.0 170.0)
  end
  begin
     id 20
     name lwrist
     direction 1 -4.4896e-011 -1.41363e-026   
     length 1.51928   
     axis 1.07133e-014 90 90   XYZ
    dof ry
    limits (-180.0 0.0)
 end
  begin
     id 21 
     name lhand
     direction 1 -4.48978e-011 -2.82725e-026   
     length 0.523208   
     axis 1.80403e-014 90 90   XYZ
    dof rx rz
    limits (-90.0 90.0)
           (-45.0 45.0)
  end
  begin
     id 22 
     name lfingers
     direction 1 -4.48977e-011 -5.6545e-026   
     length 0.421824   
     axis 3.60806e-014 90 90   XYZ
    dof rx
    limits (0.0 90.0)
  end
  begin
     id 23
     name lthumb
     direction 0.707107 -6.34962e-011 0.707107   
     length 0.605657   
     axis -90 45 2.85299e-015   XYZ
    dof rx rz
    limits (-45.0 45.0)
           (-45.0 45.0)
  end
  begin
     id 24 
     name rclavicle
     direction -0.957247 0.24311 0.156766   
     length 3.12406  
     axis 0 0 0   XYZ 
    dof ry rz
    limits (-10.0 20.0)
           (-20.0 0.0)
  end
  begin
     id 25 
     name rhumerus
     direction -1 -4.48964e-011 -1.70632e-027  
     length 4.61969   
     axis 180 30 90   XYZ
    dof rx ry rz
    limits (-90.0 60.0)
           (-90.0 90.0)
           (-90.0 90.0)
  end
  begin
     id 26 
     name rradius
     direction -1 -4.48966e-011 -6.60395e-027   
     length 3.09382   
     axis 180 30 90   XYZ
    dof rx
    limits (-10.0 170.0)
  end
  begin
     id 27 
     name rwrist
     direction -1 -4.48963e-011 -1.41363e-026   
     length 1.54691   
     axis 1.07133e-014 -90 -90   XYZ
    dof ry
    limits (-180.0 0.0)
  end
  begin
     id 28
     name rhand
     direction -1 -4.49013e-011 -2.82725e-026   
     length 0.500896   
     axis 1.80403e-014 -90 -90   XYZ
    dof rx rz
    limits (-90.0 90.0)
           (-45.0 45.0)
  end
  begin
     id 29
     name rfingers
     direction -1 -4.48902e-011 -5.6545e-026   
     length 0.403835   
     axis 3.60806e-014 -90 -90   XYZ
    dof rx
    limits (0.0 90.0)
  end
  begin
     id 30
     name rthumb
     direction -0.707107 -6.34953e-011 0.707107   
     length 0.579829   
     axis -90 -45 -2.85299e-015   XYZ
    dof rx rz
    limits (-45.0 45.0)
           (-45.0 45.0)
  end
:hierarchy
  begin
    root lhipjoint rhipjoint lowerback
    lhipjoint lfemur
    lfemur ltibia
    ltibia lfoot
    lfoot ltoes
    rhipjoint rfemur
    rfemur rtibia
    rtibia rfoot
    rfoot rtoes
    lowerback upperback
    upperback thorax
    thorax lowerneck lclavicle rclavicle
    lowerneck upperneck
    upperneck head
    lclavicle lhumerus
    lhumerus lradius
    lradius lwrist
    lwrist lhand lthumb
    lhand lfingers
    rclavicle rhumerus
    rhumerus rradius
    rradius rwrist
    rwrist rhand rthumb
    rhand rfingers
  end

#!OML:ASF E:\madness\Project 1\Capture day 1\Session 1\Female1.ASF
:FULLY-SPECIFIED
:DEGREES
369
root 7.48662 12.7795 0.761413 -155.875 -70.2883 176.998
lowerback 31.8041 1.87489 -4.96039
upperback 8.43158 -0.237947 -0.196045
thorax -7.81336 -0.49407 2.79862
lowerneck -4.73547 1.71943 -2.78577
upperneck -26.6898 -0.312832 -4.98106
head -7.46238 -0.212094 -1.06356
rclavicle -4.09496e-014 4.77083e-015
rhumerus 79.3796 -3.08431 -59.2809
rradius 128.057
rwrist -28.6354
rhand -11.3686 -47.0332
rfingers 7.12502
rthumb 14.6654 -76.4945
lclavicle -4.09496e-014 4.77083e-015
lhumerus 60.7754 -13.2597 67.545
lradius 132.017
lwrist 9.4238
lhand -52.6079 -14.3321
lfingers 7.12502
lthumb -25.0901 14.0396
rfemur -75.1041 -1.3239 15.4002
rtibia 84.7167
rfoot -28.4854 -4.07543
rtoes -4.67083
lfemur -73.1787 1.89961 -19.3178
ltibia 86.7628
lfoot -26.8387 16.8961
ltoes -11.1248
370
root 7.50546 12.7832 0.734607 -155.923 -70.3983 177.178
lowerback 32.2693 1.87748 -4.81468
upperback 7.94929 -0.215218 -0.0167565
thorax -7.84705 -0.486448 2.68462
lowerneck -5.88376 1.67405 -1.85018
upperneck -25.8285 -0.485441 -5.96231
head -6.97021 -0.350224 -1.53159
rclavicle 2.68359e-014 -2.32578e-014
rhumerus 79.5234 -3.15345 -59.1221
rradius 128.116
rwrist -28.4892
rhand -11.2098 -47.1571
rfingers 7.12502
rthumb 14.8184 -76.6072
lclavicle 2.68359e-014 -2.32578e-014
lhumerus 61.0635 -13.7041 67.614
lradius 131.836
lwrist 8.77969
lhand -52.882 -13.4328
lfingers 7.12502
lthumb -25.3528 14.9019
rfemur -75.227 -1.21851 15.6192
rtibia 84.6566
rfoot -28.3948 -4.30929
rtoes -4.89076
lfemur -73.3598 1.94341 -19.0845
ltibia 86.6717
lfoot -26.7579 16.7413
ltoes -11.2082
371
root 7.52212 12.7843 0.707018 -155.781 -70.5811 177.158
lowerback 31.9797 1.82885 -4.55776
upperback 8.36763 -0.162772 -0.0971462
thorax -7.9762 -0.453231 2.65173
lowerneck -5.9795 1.65609 -1.05572
upperneck -25.7487 -0.686794 -6.81818
head -6.9238 -0.46807 -1.94078
rclavicle -1.68967e-014 5.82439e-014
rhumerus 79.5604 -3.38161 -58.959
rradius 128.106
rwrist -28.5191
rhand -11.3854 -46.6435
rfingers 7.12502
rthumb 14.6492 -76.106
lclavicle -1.68967e-014 5.82439e-014
lhumerus 61.2862 -14.2626 67.81
lradius 131.82
lwrist 8.45621
lhand -52.9771 -12.6963
lfingers 7.12502
lthumb -25.4438 15.6254
rfemur -75.3582 -1.22608 15.8105
rtibia 84.6169
rfoot -28.3465 -4.57019
rtoes -5.11907
lfemur -73.5578 1.87978 -18.8982
ltibia 86.5408
lfoot -26.4623 16.8299
ltoes -11.8382
372
root 7.53836 12.7864 0.678396 -155.57 -70.7342 177.143
lowerback 32.3507 1.84364 -4.37464
upperback 7.90103 -0.103763 0.06034
thorax -7.94341 -0.430643 2.49269
lowerneck -5.69685 1.75366 -0.87448
upperneck -26.0323 -0.678162 -7.2754
head -7.06342 -0.439361 -2.12727
rclavicle -4.83047e-014 1.19271e-014
rhumerus 79.5758 -3.55253 -58.8253
rradius 128.12
rwrist -28.7648
rhand -11.2973 -46.4617
rfingers 7.12502
rthumb 14.7341 -75.9181
lclavicle -4.83047e-014 1.19271e-014
lhumerus 61.3515 -14.6224 68.0629
lradius 132.054
lwrist 8.44991
lhand -52.9459 -12.0395
lfingers 7.12502
lthumb -25.414 16.2864
rfemur -75.5701 -1.19961 15.9631
rtibia 84.5922
rfoot -28.3566 -4.73469
rtoes -4.97912
lfemur -73.8175 1.83715 -18.7186
ltibia 86.3961
lfoot -25.9507 17.1529
ltoes -13.5564
373
root 7.55665 12.795 0.6482 -155.414 -70.993 177.112
lowerback 32.5367 2.08256 -3.40231
upperback 7.63349 0.477372 -0.411419
thorax -8.33673 -0.140573 1.2709
lowerneck -3.18938 1.5042 0.508468
upperneck -27.2893 -1.17128 -7.74081
head -7.92866 -0.668828 -2.52638
rclavicle 4.07509e-015 -1.35174e-014
rhumerus 78.205 -4.99593 -58.7674
rradius 128.133
rwrist -28.8364
rhand -11.0886 -47.0725
rfingers 7.12502
rthumb 14.9351 -76.514
lclavicle 4.07509e-015 -1.35174e-014
lhumerus 61.681 -16.4304 68.1215
lradius 132.389
lwrist 8.92841
lhand -52.7917 -11.8071
lfingers 7.12502
lthumb -25.2662 16.5398
rfemur -75.6573 -1.24089 16.1452
rtibia 84.5334
rfoot -28.4038 -4.859
rtoes -4.92429
lfemur -73.9931 1.70499 -18.4627
ltibia 86.264
lfoot -25.6747 17.1472
ltoes -14.4286
374
root 7.57652 12.8078 0.617276 -155.268 -71.3709 177.016
lowerback 32.6794 2.10417 -2.86211
upperback 7.62457 0.669118 -0.475604
thorax -8.4054 -0.0543843 0.84551
lowerneck -2.29343 1.44446 1.15237
upperneck -27.8183 -1.40638 -8.35861
head -8.27918 -0.760384 -2.84893
rclavicle -2.48481e-016 -1.00138e-014
rhumerus 77.8859 -5.68419 -58.622
rradius 128.192
rwrist -29.0037
rhand -10.9628 -47.482
rfingers 7.12502
rthumb 15.0563 -76.9145
lclavicle -2.48481e-016 -1.00138e-014
lhumerus 61.8438 -17.0233 68.354
lradius 132.736
lwrist 9.00005
lhand -52.5232 -11.8257
lfingers 7.12502
lthumb -25.009 16.5573
rfemur -75.6125 -1.40887 16.3668
rtibia 84.4362
rfoot -28.4366 -4.89604
rtoes -4.88414
lfemur -74.0822 1.46985 -18.1596
ltibia 86.1379
lfoot -25.5485 16.6984
ltoes -13.5735
